<?xml version="1.0" encoding="utf-8" standalone="no"?>
<!DOCTYPE svg PUBLIC "-//W3C//DTD SVG 1.1//EN"
  "http://www.w3.org/Graphics/SVG/1.1/DTD/svg11.dtd">
<!-- Created with matplotlib (https://matplotlib.org/) -->
<svg height="399.349375pt" version="1.1" viewBox="0 0 517.771875 399.349375" width="517.771875pt" xmlns="http://www.w3.org/2000/svg" xmlns:xlink="http://www.w3.org/1999/xlink">
 <defs>
  <style type="text/css">
*{stroke-linecap:butt;stroke-linejoin:round;}
  </style>
 </defs>
 <g id="figure_1">
  <g id="patch_1">
   <path d="M 0 399.349375 
L 517.771875 399.349375 
L 517.771875 0 
L 0 0 
z
" style="fill:#ffffff;"/>
  </g>
  <g id="axes_1">
   <g id="patch_2">
    <path d="M 64.171875 352.8 
L 510.571875 352.8 
L 510.571875 7.2 
L 64.171875 7.2 
z
" style="fill:#ffffff;"/>
   </g>
   <g id="line2d_1">
    <defs>
     <path d="M 0 3 
C 0.795609 3 1.55874 2.683901 2.12132 2.12132 
C 2.683901 1.55874 3 0.795609 3 0 
C 3 -0.795609 2.683901 -1.55874 2.12132 -2.12132 
C 1.55874 -2.683901 0.795609 -3 0 -3 
C -0.795609 -3 -1.55874 -2.683901 -2.12132 -2.12132 
C -2.683901 -1.55874 -3 -0.795609 -3 0 
C -3 0.795609 -2.683901 1.55874 -2.12132 2.12132 
C -1.55874 2.683901 -0.795609 3 0 3 
z
" id="m25751290dd" style="stroke:#000000;stroke-width:1.5;"/>
    </defs>
    <g clip-path="url(#p977fd1748a)">
     <use style="fill-opacity:0;stroke:#000000;stroke-width:1.5;" x="482.645222" xlink:href="#m25751290dd" y="231.258764"/>
    </g>
   </g>
   <g id="line2d_2">
    <g clip-path="url(#p977fd1748a)">
     <use style="fill-opacity:0;stroke:#000000;stroke-width:1.5;" x="218.923424" xlink:href="#m25751290dd" y="231.258764"/>
    </g>
   </g>
   <g id="line2d_3">
    <path clip-path="url(#p977fd1748a)" d="M 269.17429 337.090909 
L 280.323316 317.454545 
L 291.401687 297.818182 
L 301.384568 278.181818 
L 311.072337 258.545455 
L 320.006221 238.909091 
L 328.866061 219.272727 
L 337.298476 199.636364 
L 345.36128 180 
L 353.467454 160.363636 
L 361.270593 140.727273 
L 369.151131 121.090909 
L 377.004429 101.454545 
L 385.165522 81.818182 
L 385.165522 81.818182 
L 393.916104 62.181818 
L 404.068659 42.545455 
L 412.032634 30.763636 
L 415.754983 26.836364 
L 423.995224 22.909091 
L 431.355391 26.836364 
L 434.180202 30.763636 
L 439.441272 42.545455 
L 444.865529 62.181818 
L 448.720986 81.818182 
L 448.720986 81.818182 
L 451.777343 101.454545 
L 454.330963 121.090909 
L 456.539043 140.727273 
L 458.490513 160.363636 
L 460.228004 180 
L 461.814908 199.636364 
L 463.269514 219.272727 
L 464.601046 238.909091 
L 465.842746 258.545455 
L 467.00016 278.181818 
L 468.088883 297.818182 
L 469.111625 317.454545 
L 470.069367 337.090909 
" style="fill:none;stroke:#0000ff;stroke-linecap:square;stroke-width:2;"/>
   </g>
   <g id="line2d_4">
    <path clip-path="url(#p977fd1748a)" d="M 218.514121 337.090909 
L 235.281285 317.454545 
L 250.492411 297.818182 
L 265.485867 278.181818 
L 278.669379 258.545455 
L 291.508244 238.909091 
L 303.153208 219.272727 
L 314.670661 199.636364 
L 325.496047 180 
L 335.855436 160.363636 
L 345.928762 140.727273 
L 356.008162 121.090909 
L 365.979042 101.454545 
L 376.156402 81.818182 
L 376.156402 81.818182 
L 387.011125 62.181818 
L 399.500964 42.545455 
L 409.289924 30.763636 
L 413.869002 26.836364 
L 423.995224 22.909091 
L 433.096022 26.836364 
L 436.632633 30.763636 
L 443.27431 42.545455 
L 450.23684 62.181818 
L 455.270812 81.818182 
L 455.270812 81.818182 
L 459.341604 101.454545 
L 462.805966 121.090909 
L 465.848081 140.727273 
L 468.595265 160.363636 
L 471.100684 180 
L 473.407789 199.636364 
L 475.567909 219.272727 
L 477.601952 238.909091 
L 479.53385 258.545455 
L 481.364941 278.181818 
L 483.126079 297.818182 
L 484.822082 317.454545 
L 486.456551 337.090909 
" style="fill:none;stroke:#008000;stroke-linecap:square;stroke-width:2;"/>
   </g>
   <g id="line2d_5">
    <path clip-path="url(#p977fd1748a)" d="M 84.462784 337.090909 
L 115.680238 317.454545 
L 142.055823 297.818182 
L 168.907838 278.181818 
L 191.119438 258.545455 
L 212.966432 238.909091 
L 233.237438 219.272727 
L 251.683882 199.636364 
L 269.277129 180 
L 286.387001 160.363636 
L 302.541514 140.727273 
L 318.560513 121.090909 
L 334.410591 101.454545 
L 350.546793 81.818182 
L 350.546793 81.818182 
L 367.538949 62.181818 
L 386.911224 42.545455 
L 401.953165 30.763636 
L 408.914841 26.836364 
L 423.995224 22.909091 
L 437.037883 26.836364 
L 441.90639 30.763636 
L 450.698114 42.545455 
L 459.306963 62.181818 
L 465.072429 81.818182 
L 469.403091 101.454545 
L 472.859381 121.090909 
L 475.718194 140.727273 
L 478.135426 160.363636 
L 480.221202 180 
L 481.785553 199.636364 
L 483.546197 219.272727 
L 484.743338 238.909091 
L 486.204483 258.545455 
L 487.220506 278.181818 
L 488.103926 297.818182 
L 489.157136 317.454545 
L 490.280966 337.090909 
" style="fill:none;stroke:#ff0000;stroke-linecap:square;stroke-width:2;"/>
   </g>
   <g id="patch_3">
    <path d="M 64.171875 352.8 
L 64.171875 7.2 
" style="fill:none;stroke:#000000;stroke-linecap:square;stroke-linejoin:miter;"/>
   </g>
   <g id="patch_4">
    <path d="M 510.571875 352.8 
L 510.571875 7.2 
" style="fill:none;stroke:#000000;stroke-linecap:square;stroke-linejoin:miter;"/>
   </g>
   <g id="patch_5">
    <path d="M 64.171875 352.8 
L 510.571875 352.8 
" style="fill:none;stroke:#000000;stroke-linecap:square;stroke-linejoin:miter;"/>
   </g>
   <g id="patch_6">
    <path d="M 64.171875 7.2 
L 510.571875 7.2 
" style="fill:none;stroke:#000000;stroke-linecap:square;stroke-linejoin:miter;"/>
   </g>
   <g id="matplotlib.axis_1">
    <g id="xtick_1">
     <g id="line2d_6">
      <defs>
       <path d="M 0 0 
L 0 -4 
" id="m4e519a8834" style="stroke:#000000;stroke-width:0.5;"/>
      </defs>
      <g>
       <use style="fill-opacity:0;stroke:#000000;stroke-width:0.5;" x="170.710068" xlink:href="#m4e519a8834" y="352.8"/>
      </g>
     </g>
     <g id="line2d_7">
      <defs>
       <path d="M 0 0 
L 0 4 
" id="m138ba4efcd" style="stroke:#000000;stroke-width:0.5;"/>
      </defs>
      <g>
       <use style="fill-opacity:0;stroke:#000000;stroke-width:0.5;" x="170.710068" xlink:href="#m138ba4efcd" y="7.2"/>
      </g>
     </g>
     <g id="text_1">
      <!-- $\mathdefault{10^{-2}}$ -->
      <defs>
       <path d="M 12.40625 8.296875 
L 28.515625 8.296875 
L 28.515625 63.921875 
L 10.984375 60.40625 
L 10.984375 69.390625 
L 28.421875 72.90625 
L 38.28125 72.90625 
L 38.28125 8.296875 
L 54.390625 8.296875 
L 54.390625 0 
L 12.40625 0 
z
" id="DejaVuSans-49"/>
       <path d="M 31.78125 66.40625 
Q 24.171875 66.40625 20.328125 58.90625 
Q 16.5 51.421875 16.5 36.375 
Q 16.5 21.390625 20.328125 13.890625 
Q 24.171875 6.390625 31.78125 6.390625 
Q 39.453125 6.390625 43.28125 13.890625 
Q 47.125 21.390625 47.125 36.375 
Q 47.125 51.421875 43.28125 58.90625 
Q 39.453125 66.40625 31.78125 66.40625 
z
M 31.78125 74.21875 
Q 44.046875 74.21875 50.515625 64.515625 
Q 56.984375 54.828125 56.984375 36.375 
Q 56.984375 17.96875 50.515625 8.265625 
Q 44.046875 -1.421875 31.78125 -1.421875 
Q 19.53125 -1.421875 13.0625 8.265625 
Q 6.59375 17.96875 6.59375 36.375 
Q 6.59375 54.828125 13.0625 64.515625 
Q 19.53125 74.21875 31.78125 74.21875 
z
" id="DejaVuSans-48"/>
       <path d="M 4.890625 31.390625 
L 31.203125 31.390625 
L 31.203125 23.390625 
L 4.890625 23.390625 
z
" id="DejaVuSans-45"/>
       <path d="M 19.1875 8.296875 
L 53.609375 8.296875 
L 53.609375 0 
L 7.328125 0 
L 7.328125 8.296875 
Q 12.9375 14.109375 22.625 23.890625 
Q 32.328125 33.6875 34.8125 36.53125 
Q 39.546875 41.84375 41.421875 45.53125 
Q 43.3125 49.21875 43.3125 52.78125 
Q 43.3125 58.59375 39.234375 62.25 
Q 35.15625 65.921875 28.609375 65.921875 
Q 23.96875 65.921875 18.8125 64.3125 
Q 13.671875 62.703125 7.8125 59.421875 
L 7.8125 69.390625 
Q 13.765625 71.78125 18.9375 73 
Q 24.125 74.21875 28.421875 74.21875 
Q 39.75 74.21875 46.484375 68.546875 
Q 53.21875 62.890625 53.21875 53.421875 
Q 53.21875 48.921875 51.53125 44.890625 
Q 49.859375 40.875 45.40625 35.40625 
Q 44.1875 33.984375 37.640625 27.21875 
Q 31.109375 20.453125 19.1875 8.296875 
z
" id="DejaVuSans-50"/>
      </defs>
      <g transform="translate(156.640068 367.437812)scale(0.14 -0.14)">
       <use transform="translate(0 0.765625)" xlink:href="#DejaVuSans-49"/>
       <use transform="translate(63.623047 0.765625)" xlink:href="#DejaVuSans-48"/>
       <use transform="translate(128.203125 39.046875)scale(0.7)" xlink:href="#DejaVuSans-45"/>
       <use transform="translate(153.461914 39.046875)scale(0.7)" xlink:href="#DejaVuSans-50"/>
      </g>
     </g>
    </g>
    <g id="xtick_2">
     <g id="line2d_8">
      <g>
       <use style="fill-opacity:0;stroke:#000000;stroke-width:0.5;" x="297.352646" xlink:href="#m4e519a8834" y="352.8"/>
      </g>
     </g>
     <g id="line2d_9">
      <g>
       <use style="fill-opacity:0;stroke:#000000;stroke-width:0.5;" x="297.352646" xlink:href="#m138ba4efcd" y="7.2"/>
      </g>
     </g>
     <g id="text_2">
      <!-- $\mathdefault{10^{-1}}$ -->
      <g transform="translate(283.282646 367.437812)scale(0.14 -0.14)">
       <use transform="translate(0 0.684375)" xlink:href="#DejaVuSans-49"/>
       <use transform="translate(63.623047 0.684375)" xlink:href="#DejaVuSans-48"/>
       <use transform="translate(128.203125 38.965625)scale(0.7)" xlink:href="#DejaVuSans-45"/>
       <use transform="translate(153.461914 38.965625)scale(0.7)" xlink:href="#DejaVuSans-49"/>
      </g>
     </g>
    </g>
    <g id="xtick_3">
     <g id="line2d_10">
      <g>
       <use style="fill-opacity:0;stroke:#000000;stroke-width:0.5;" x="423.995224" xlink:href="#m4e519a8834" y="352.8"/>
      </g>
     </g>
     <g id="line2d_11">
      <g>
       <use style="fill-opacity:0;stroke:#000000;stroke-width:0.5;" x="423.995224" xlink:href="#m138ba4efcd" y="7.2"/>
      </g>
     </g>
     <g id="text_3">
      <!-- $\mathdefault{10^{0}}$ -->
      <g transform="translate(411.675224 367.437812)scale(0.14 -0.14)">
       <use transform="translate(0 0.765625)" xlink:href="#DejaVuSans-49"/>
       <use transform="translate(63.623047 0.765625)" xlink:href="#DejaVuSans-48"/>
       <use transform="translate(128.203125 39.046875)scale(0.7)" xlink:href="#DejaVuSans-48"/>
      </g>
     </g>
    </g>
    <g id="xtick_4">
     <g id="line2d_12">
      <defs>
       <path d="M 0 0 
L 0 -2 
" id="m9a7e9ebb7c" style="stroke:#000000;stroke-width:0.5;"/>
      </defs>
      <g>
       <use style="fill-opacity:0;stroke:#000000;stroke-width:0.5;" x="82.190705" xlink:href="#m9a7e9ebb7c" y="352.8"/>
      </g>
     </g>
     <g id="line2d_13">
      <defs>
       <path d="M 0 0 
L 0 2 
" id="m120ee9151d" style="stroke:#000000;stroke-width:0.5;"/>
      </defs>
      <g>
       <use style="fill-opacity:0;stroke:#000000;stroke-width:0.5;" x="82.190705" xlink:href="#m120ee9151d" y="7.2"/>
      </g>
     </g>
    </g>
    <g id="xtick_5">
     <g id="line2d_14">
      <g>
       <use style="fill-opacity:0;stroke:#000000;stroke-width:0.5;" x="104.491356" xlink:href="#m9a7e9ebb7c" y="352.8"/>
      </g>
     </g>
     <g id="line2d_15">
      <g>
       <use style="fill-opacity:0;stroke:#000000;stroke-width:0.5;" x="104.491356" xlink:href="#m120ee9151d" y="7.2"/>
      </g>
     </g>
    </g>
    <g id="xtick_6">
     <g id="line2d_16">
      <g>
       <use style="fill-opacity:0;stroke:#000000;stroke-width:0.5;" x="120.31392" xlink:href="#m9a7e9ebb7c" y="352.8"/>
      </g>
     </g>
     <g id="line2d_17">
      <g>
       <use style="fill-opacity:0;stroke:#000000;stroke-width:0.5;" x="120.31392" xlink:href="#m120ee9151d" y="7.2"/>
      </g>
     </g>
    </g>
    <g id="xtick_7">
     <g id="line2d_18">
      <g>
       <use style="fill-opacity:0;stroke:#000000;stroke-width:0.5;" x="132.586854" xlink:href="#m9a7e9ebb7c" y="352.8"/>
      </g>
     </g>
     <g id="line2d_19">
      <g>
       <use style="fill-opacity:0;stroke:#000000;stroke-width:0.5;" x="132.586854" xlink:href="#m120ee9151d" y="7.2"/>
      </g>
     </g>
    </g>
    <g id="xtick_8">
     <g id="line2d_20">
      <g>
       <use style="fill-opacity:0;stroke:#000000;stroke-width:0.5;" x="142.614571" xlink:href="#m9a7e9ebb7c" y="352.8"/>
      </g>
     </g>
     <g id="line2d_21">
      <g>
       <use style="fill-opacity:0;stroke:#000000;stroke-width:0.5;" x="142.614571" xlink:href="#m120ee9151d" y="7.2"/>
      </g>
     </g>
    </g>
    <g id="xtick_9">
     <g id="line2d_22">
      <g>
       <use style="fill-opacity:0;stroke:#000000;stroke-width:0.5;" x="151.092885" xlink:href="#m9a7e9ebb7c" y="352.8"/>
      </g>
     </g>
     <g id="line2d_23">
      <g>
       <use style="fill-opacity:0;stroke:#000000;stroke-width:0.5;" x="151.092885" xlink:href="#m120ee9151d" y="7.2"/>
      </g>
     </g>
    </g>
    <g id="xtick_10">
     <g id="line2d_24">
      <g>
       <use style="fill-opacity:0;stroke:#000000;stroke-width:0.5;" x="158.437134" xlink:href="#m9a7e9ebb7c" y="352.8"/>
      </g>
     </g>
     <g id="line2d_25">
      <g>
       <use style="fill-opacity:0;stroke:#000000;stroke-width:0.5;" x="158.437134" xlink:href="#m120ee9151d" y="7.2"/>
      </g>
     </g>
    </g>
    <g id="xtick_11">
     <g id="line2d_26">
      <g>
       <use style="fill-opacity:0;stroke:#000000;stroke-width:0.5;" x="164.915222" xlink:href="#m9a7e9ebb7c" y="352.8"/>
      </g>
     </g>
     <g id="line2d_27">
      <g>
       <use style="fill-opacity:0;stroke:#000000;stroke-width:0.5;" x="164.915222" xlink:href="#m120ee9151d" y="7.2"/>
      </g>
     </g>
    </g>
    <g id="xtick_12">
     <g id="line2d_28">
      <g>
       <use style="fill-opacity:0;stroke:#000000;stroke-width:0.5;" x="208.833283" xlink:href="#m9a7e9ebb7c" y="352.8"/>
      </g>
     </g>
     <g id="line2d_29">
      <g>
       <use style="fill-opacity:0;stroke:#000000;stroke-width:0.5;" x="208.833283" xlink:href="#m120ee9151d" y="7.2"/>
      </g>
     </g>
    </g>
    <g id="xtick_13">
     <g id="line2d_30">
      <g>
       <use style="fill-opacity:0;stroke:#000000;stroke-width:0.5;" x="231.133934" xlink:href="#m9a7e9ebb7c" y="352.8"/>
      </g>
     </g>
     <g id="line2d_31">
      <g>
       <use style="fill-opacity:0;stroke:#000000;stroke-width:0.5;" x="231.133934" xlink:href="#m120ee9151d" y="7.2"/>
      </g>
     </g>
    </g>
    <g id="xtick_14">
     <g id="line2d_32">
      <g>
       <use style="fill-opacity:0;stroke:#000000;stroke-width:0.5;" x="246.956498" xlink:href="#m9a7e9ebb7c" y="352.8"/>
      </g>
     </g>
     <g id="line2d_33">
      <g>
       <use style="fill-opacity:0;stroke:#000000;stroke-width:0.5;" x="246.956498" xlink:href="#m120ee9151d" y="7.2"/>
      </g>
     </g>
    </g>
    <g id="xtick_15">
     <g id="line2d_34">
      <g>
       <use style="fill-opacity:0;stroke:#000000;stroke-width:0.5;" x="259.229432" xlink:href="#m9a7e9ebb7c" y="352.8"/>
      </g>
     </g>
     <g id="line2d_35">
      <g>
       <use style="fill-opacity:0;stroke:#000000;stroke-width:0.5;" x="259.229432" xlink:href="#m120ee9151d" y="7.2"/>
      </g>
     </g>
    </g>
    <g id="xtick_16">
     <g id="line2d_36">
      <g>
       <use style="fill-opacity:0;stroke:#000000;stroke-width:0.5;" x="269.257149" xlink:href="#m9a7e9ebb7c" y="352.8"/>
      </g>
     </g>
     <g id="line2d_37">
      <g>
       <use style="fill-opacity:0;stroke:#000000;stroke-width:0.5;" x="269.257149" xlink:href="#m120ee9151d" y="7.2"/>
      </g>
     </g>
    </g>
    <g id="xtick_17">
     <g id="line2d_38">
      <g>
       <use style="fill-opacity:0;stroke:#000000;stroke-width:0.5;" x="277.735463" xlink:href="#m9a7e9ebb7c" y="352.8"/>
      </g>
     </g>
     <g id="line2d_39">
      <g>
       <use style="fill-opacity:0;stroke:#000000;stroke-width:0.5;" x="277.735463" xlink:href="#m120ee9151d" y="7.2"/>
      </g>
     </g>
    </g>
    <g id="xtick_18">
     <g id="line2d_40">
      <g>
       <use style="fill-opacity:0;stroke:#000000;stroke-width:0.5;" x="285.079712" xlink:href="#m9a7e9ebb7c" y="352.8"/>
      </g>
     </g>
     <g id="line2d_41">
      <g>
       <use style="fill-opacity:0;stroke:#000000;stroke-width:0.5;" x="285.079712" xlink:href="#m120ee9151d" y="7.2"/>
      </g>
     </g>
    </g>
    <g id="xtick_19">
     <g id="line2d_42">
      <g>
       <use style="fill-opacity:0;stroke:#000000;stroke-width:0.5;" x="291.5578" xlink:href="#m9a7e9ebb7c" y="352.8"/>
      </g>
     </g>
     <g id="line2d_43">
      <g>
       <use style="fill-opacity:0;stroke:#000000;stroke-width:0.5;" x="291.5578" xlink:href="#m120ee9151d" y="7.2"/>
      </g>
     </g>
    </g>
    <g id="xtick_20">
     <g id="line2d_44">
      <g>
       <use style="fill-opacity:0;stroke:#000000;stroke-width:0.5;" x="335.475861" xlink:href="#m9a7e9ebb7c" y="352.8"/>
      </g>
     </g>
     <g id="line2d_45">
      <g>
       <use style="fill-opacity:0;stroke:#000000;stroke-width:0.5;" x="335.475861" xlink:href="#m120ee9151d" y="7.2"/>
      </g>
     </g>
    </g>
    <g id="xtick_21">
     <g id="line2d_46">
      <g>
       <use style="fill-opacity:0;stroke:#000000;stroke-width:0.5;" x="357.776512" xlink:href="#m9a7e9ebb7c" y="352.8"/>
      </g>
     </g>
     <g id="line2d_47">
      <g>
       <use style="fill-opacity:0;stroke:#000000;stroke-width:0.5;" x="357.776512" xlink:href="#m120ee9151d" y="7.2"/>
      </g>
     </g>
    </g>
    <g id="xtick_22">
     <g id="line2d_48">
      <g>
       <use style="fill-opacity:0;stroke:#000000;stroke-width:0.5;" x="373.599076" xlink:href="#m9a7e9ebb7c" y="352.8"/>
      </g>
     </g>
     <g id="line2d_49">
      <g>
       <use style="fill-opacity:0;stroke:#000000;stroke-width:0.5;" x="373.599076" xlink:href="#m120ee9151d" y="7.2"/>
      </g>
     </g>
    </g>
    <g id="xtick_23">
     <g id="line2d_50">
      <g>
       <use style="fill-opacity:0;stroke:#000000;stroke-width:0.5;" x="385.87201" xlink:href="#m9a7e9ebb7c" y="352.8"/>
      </g>
     </g>
     <g id="line2d_51">
      <g>
       <use style="fill-opacity:0;stroke:#000000;stroke-width:0.5;" x="385.87201" xlink:href="#m120ee9151d" y="7.2"/>
      </g>
     </g>
    </g>
    <g id="xtick_24">
     <g id="line2d_52">
      <g>
       <use style="fill-opacity:0;stroke:#000000;stroke-width:0.5;" x="395.899727" xlink:href="#m9a7e9ebb7c" y="352.8"/>
      </g>
     </g>
     <g id="line2d_53">
      <g>
       <use style="fill-opacity:0;stroke:#000000;stroke-width:0.5;" x="395.899727" xlink:href="#m120ee9151d" y="7.2"/>
      </g>
     </g>
    </g>
    <g id="xtick_25">
     <g id="line2d_54">
      <g>
       <use style="fill-opacity:0;stroke:#000000;stroke-width:0.5;" x="404.378041" xlink:href="#m9a7e9ebb7c" y="352.8"/>
      </g>
     </g>
     <g id="line2d_55">
      <g>
       <use style="fill-opacity:0;stroke:#000000;stroke-width:0.5;" x="404.378041" xlink:href="#m120ee9151d" y="7.2"/>
      </g>
     </g>
    </g>
    <g id="xtick_26">
     <g id="line2d_56">
      <g>
       <use style="fill-opacity:0;stroke:#000000;stroke-width:0.5;" x="411.722291" xlink:href="#m9a7e9ebb7c" y="352.8"/>
      </g>
     </g>
     <g id="line2d_57">
      <g>
       <use style="fill-opacity:0;stroke:#000000;stroke-width:0.5;" x="411.722291" xlink:href="#m120ee9151d" y="7.2"/>
      </g>
     </g>
    </g>
    <g id="xtick_27">
     <g id="line2d_58">
      <g>
       <use style="fill-opacity:0;stroke:#000000;stroke-width:0.5;" x="418.200378" xlink:href="#m9a7e9ebb7c" y="352.8"/>
      </g>
     </g>
     <g id="line2d_59">
      <g>
       <use style="fill-opacity:0;stroke:#000000;stroke-width:0.5;" x="418.200378" xlink:href="#m120ee9151d" y="7.2"/>
      </g>
     </g>
    </g>
    <g id="xtick_28">
     <g id="line2d_60">
      <g>
       <use style="fill-opacity:0;stroke:#000000;stroke-width:0.5;" x="462.118439" xlink:href="#m9a7e9ebb7c" y="352.8"/>
      </g>
     </g>
     <g id="line2d_61">
      <g>
       <use style="fill-opacity:0;stroke:#000000;stroke-width:0.5;" x="462.118439" xlink:href="#m120ee9151d" y="7.2"/>
      </g>
     </g>
    </g>
    <g id="xtick_29">
     <g id="line2d_62">
      <g>
       <use style="fill-opacity:0;stroke:#000000;stroke-width:0.5;" x="484.41909" xlink:href="#m9a7e9ebb7c" y="352.8"/>
      </g>
     </g>
     <g id="line2d_63">
      <g>
       <use style="fill-opacity:0;stroke:#000000;stroke-width:0.5;" x="484.41909" xlink:href="#m120ee9151d" y="7.2"/>
      </g>
     </g>
    </g>
    <g id="xtick_30">
     <g id="line2d_64">
      <g>
       <use style="fill-opacity:0;stroke:#000000;stroke-width:0.5;" x="500.241654" xlink:href="#m9a7e9ebb7c" y="352.8"/>
      </g>
     </g>
     <g id="line2d_65">
      <g>
       <use style="fill-opacity:0;stroke:#000000;stroke-width:0.5;" x="500.241654" xlink:href="#m120ee9151d" y="7.2"/>
      </g>
     </g>
    </g>
    <g id="text_4">
     <!-- $\rho/\rho_c$ -->
     <defs>
      <path d="M 2.78125 -18.796875 
Q 2.78125 -18.21875 2.875 -18.015625 
L 12.796875 21.921875 
Q 14.203125 27.296875 17.640625 32.4375 
Q 21.09375 37.59375 25.96875 40.890625 
Q 30.859375 44.1875 36.28125 44.1875 
Q 40.625 44.1875 43.875 41.921875 
Q 47.125 39.65625 48.75 35.96875 
Q 50.390625 32.28125 50.390625 27.875 
Q 50.390625 23.046875 48.40625 17.875 
Q 46.4375 12.703125 42.9375 8.40625 
Q 39.453125 4.109375 34.90625 1.484375 
Q 30.375 -1.125 25.390625 -1.125 
Q 22.46875 -1.125 19.875 0.609375 
Q 17.28125 2.34375 15.828125 5.171875 
L 9.90625 -18.40625 
Q 9.625 -19.828125 8.453125 -20.703125 
Q 7.28125 -21.578125 5.8125 -21.578125 
Q 4.59375 -21.578125 3.6875 -20.8125 
Q 2.78125 -20.0625 2.78125 -18.796875 
z
M 25.59375 1.515625 
Q 30.90625 1.515625 34.828125 6.953125 
Q 38.765625 12.40625 40.84375 19.75 
Q 42.921875 27.09375 42.921875 32.171875 
Q 42.921875 35.984375 41.25 38.796875 
Q 39.59375 41.609375 36.078125 41.609375 
Q 31.734375 41.609375 28.40625 38.3125 
Q 25.09375 35.015625 23.09375 30.5625 
Q 21.09375 26.125 19.828125 21.296875 
L 17.09375 10.109375 
Q 17.71875 6.5 19.9375 4 
Q 22.171875 1.515625 25.59375 1.515625 
z
" id="Cmmi10-189"/>
      <path d="M 5.609375 -23 
Q 5.609375 -22.703125 5.71875 -22.609375 
L 40.484375 73.78125 
Q 40.671875 74.359375 41.15625 74.671875 
Q 41.65625 75 42.28125 75 
Q 43.171875 75 43.71875 74.453125 
Q 44.28125 73.921875 44.28125 73 
L 44.28125 72.609375 
L 9.515625 -23.78125 
Q 8.9375 -25 7.625 -25 
Q 6.78125 -25 6.1875 -24.40625 
Q 5.609375 -23.828125 5.609375 -23 
z
" id="Cmmi10-61"/>
      <path d="M 11.71875 11.921875 
Q 11.71875 7.5625 13.9375 4.53125 
Q 16.15625 1.515625 20.3125 1.515625 
Q 26.265625 1.515625 31.75 4.25 
Q 37.25 6.984375 40.71875 11.8125 
Q 41.015625 12.109375 41.5 12.109375 
Q 42 12.109375 42.5 11.546875 
Q 43.015625 10.984375 43.015625 10.5 
Q 43.015625 10.109375 42.828125 9.90625 
Q 39.15625 4.78125 32.953125 1.828125 
Q 26.765625 -1.125 20.125 -1.125 
Q 15.328125 -1.125 11.671875 1.140625 
Q 8.015625 3.421875 6 7.21875 
Q 4 11.03125 4 15.828125 
Q 4 22.5625 7.765625 29.203125 
Q 11.53125 35.84375 17.78125 40.015625 
Q 24.03125 44.1875 30.90625 44.1875 
Q 35.40625 44.1875 38.984375 42.015625 
Q 42.578125 39.84375 42.578125 35.59375 
Q 42.578125 32.859375 40.984375 30.921875 
Q 39.40625 29 36.71875 29 
Q 35.109375 29 34 30 
Q 32.90625 31 32.90625 32.625 
Q 32.90625 34.96875 34.609375 36.625 
Q 36.328125 38.28125 38.625 38.28125 
L 38.8125 38.28125 
Q 37.640625 39.984375 35.421875 40.796875 
Q 33.203125 41.609375 30.8125 41.609375 
Q 24.953125 41.609375 20.546875 36.59375 
Q 16.15625 31.59375 13.9375 24.625 
Q 11.71875 17.671875 11.71875 11.921875 
z
" id="Cmmi10-99"/>
     </defs>
     <g transform="translate(271.327875 387.949375)scale(0.168 -0.168)">
      <use xlink:href="#Cmmi10-189"/>
      <use transform="translate(51.708984 0)" xlink:href="#Cmmi10-61"/>
      <use transform="translate(101.708984 0)" xlink:href="#Cmmi10-189"/>
      <use transform="translate(153.417969 -17.00625)scale(0.7)" xlink:href="#Cmmi10-99"/>
     </g>
    </g>
   </g>
   <g id="matplotlib.axis_2">
    <g id="ytick_1">
     <g id="line2d_66">
      <defs>
       <path d="M 0 0 
L 4 0 
" id="m91bc3953c0" style="stroke:#000000;stroke-width:0.5;"/>
      </defs>
      <g>
       <use style="fill-opacity:0;stroke:#000000;stroke-width:0.5;" x="64.171875" xlink:href="#m91bc3953c0" y="337.090909"/>
      </g>
     </g>
     <g id="line2d_67">
      <defs>
       <path d="M 0 0 
L -4 0 
" id="md438be3eac" style="stroke:#000000;stroke-width:0.5;"/>
      </defs>
      <g>
       <use style="fill-opacity:0;stroke:#000000;stroke-width:0.5;" x="510.571875" xlink:href="#md438be3eac" y="337.090909"/>
      </g>
     </g>
     <g id="text_5">
      <!-- 0.60 -->
      <defs>
       <path d="M 10.6875 12.40625 
L 21 12.40625 
L 21 0 
L 10.6875 0 
z
" id="DejaVuSans-46"/>
       <path d="M 33.015625 40.375 
Q 26.375 40.375 22.484375 35.828125 
Q 18.609375 31.296875 18.609375 23.390625 
Q 18.609375 15.53125 22.484375 10.953125 
Q 26.375 6.390625 33.015625 6.390625 
Q 39.65625 6.390625 43.53125 10.953125 
Q 47.40625 15.53125 47.40625 23.390625 
Q 47.40625 31.296875 43.53125 35.828125 
Q 39.65625 40.375 33.015625 40.375 
z
M 52.59375 71.296875 
L 52.59375 62.3125 
Q 48.875 64.0625 45.09375 64.984375 
Q 41.3125 65.921875 37.59375 65.921875 
Q 27.828125 65.921875 22.671875 59.328125 
Q 17.53125 52.734375 16.796875 39.40625 
Q 19.671875 43.65625 24.015625 45.921875 
Q 28.375 48.1875 33.59375 48.1875 
Q 44.578125 48.1875 50.953125 41.515625 
Q 57.328125 34.859375 57.328125 23.390625 
Q 57.328125 12.15625 50.6875 5.359375 
Q 44.046875 -1.421875 33.015625 -1.421875 
Q 20.359375 -1.421875 13.671875 8.265625 
Q 6.984375 17.96875 6.984375 36.375 
Q 6.984375 53.65625 15.1875 63.9375 
Q 23.390625 74.21875 37.203125 74.21875 
Q 40.921875 74.21875 44.703125 73.484375 
Q 48.484375 72.75 52.59375 71.296875 
z
" id="DejaVuSans-54"/>
      </defs>
      <g transform="translate(29 340.954034)scale(0.14 -0.14)">
       <use xlink:href="#DejaVuSans-48"/>
       <use x="63.623047" xlink:href="#DejaVuSans-46"/>
       <use x="95.410156" xlink:href="#DejaVuSans-54"/>
       <use x="159.033203" xlink:href="#DejaVuSans-48"/>
      </g>
     </g>
    </g>
    <g id="ytick_2">
     <g id="line2d_68">
      <g>
       <use style="fill-opacity:0;stroke:#000000;stroke-width:0.5;" x="64.171875" xlink:href="#m91bc3953c0" y="297.818182"/>
      </g>
     </g>
     <g id="line2d_69">
      <g>
       <use style="fill-opacity:0;stroke:#000000;stroke-width:0.5;" x="510.571875" xlink:href="#md438be3eac" y="297.818182"/>
      </g>
     </g>
     <g id="text_6">
      <!-- 0.65 -->
      <defs>
       <path d="M 10.796875 72.90625 
L 49.515625 72.90625 
L 49.515625 64.59375 
L 19.828125 64.59375 
L 19.828125 46.734375 
Q 21.96875 47.46875 24.109375 47.828125 
Q 26.265625 48.1875 28.421875 48.1875 
Q 40.625 48.1875 47.75 41.5 
Q 54.890625 34.8125 54.890625 23.390625 
Q 54.890625 11.625 47.5625 5.09375 
Q 40.234375 -1.421875 26.90625 -1.421875 
Q 22.3125 -1.421875 17.546875 -0.640625 
Q 12.796875 0.140625 7.71875 1.703125 
L 7.71875 11.625 
Q 12.109375 9.234375 16.796875 8.0625 
Q 21.484375 6.890625 26.703125 6.890625 
Q 35.15625 6.890625 40.078125 11.328125 
Q 45.015625 15.765625 45.015625 23.390625 
Q 45.015625 31 40.078125 35.4375 
Q 35.15625 39.890625 26.703125 39.890625 
Q 22.75 39.890625 18.8125 39.015625 
Q 14.890625 38.140625 10.796875 36.28125 
z
" id="DejaVuSans-53"/>
      </defs>
      <g transform="translate(29 301.681307)scale(0.14 -0.14)">
       <use xlink:href="#DejaVuSans-48"/>
       <use x="63.623047" xlink:href="#DejaVuSans-46"/>
       <use x="95.410156" xlink:href="#DejaVuSans-54"/>
       <use x="159.033203" xlink:href="#DejaVuSans-53"/>
      </g>
     </g>
    </g>
    <g id="ytick_3">
     <g id="line2d_70">
      <g>
       <use style="fill-opacity:0;stroke:#000000;stroke-width:0.5;" x="64.171875" xlink:href="#m91bc3953c0" y="258.545455"/>
      </g>
     </g>
     <g id="line2d_71">
      <g>
       <use style="fill-opacity:0;stroke:#000000;stroke-width:0.5;" x="510.571875" xlink:href="#md438be3eac" y="258.545455"/>
      </g>
     </g>
     <g id="text_7">
      <!-- 0.70 -->
      <defs>
       <path d="M 8.203125 72.90625 
L 55.078125 72.90625 
L 55.078125 68.703125 
L 28.609375 0 
L 18.3125 0 
L 43.21875 64.59375 
L 8.203125 64.59375 
z
" id="DejaVuSans-55"/>
      </defs>
      <g transform="translate(29 262.40858)scale(0.14 -0.14)">
       <use xlink:href="#DejaVuSans-48"/>
       <use x="63.623047" xlink:href="#DejaVuSans-46"/>
       <use x="95.410156" xlink:href="#DejaVuSans-55"/>
       <use x="159.033203" xlink:href="#DejaVuSans-48"/>
      </g>
     </g>
    </g>
    <g id="ytick_4">
     <g id="line2d_72">
      <g>
       <use style="fill-opacity:0;stroke:#000000;stroke-width:0.5;" x="64.171875" xlink:href="#m91bc3953c0" y="219.272727"/>
      </g>
     </g>
     <g id="line2d_73">
      <g>
       <use style="fill-opacity:0;stroke:#000000;stroke-width:0.5;" x="510.571875" xlink:href="#md438be3eac" y="219.272727"/>
      </g>
     </g>
     <g id="text_8">
      <!-- 0.75 -->
      <g transform="translate(29 223.135852)scale(0.14 -0.14)">
       <use xlink:href="#DejaVuSans-48"/>
       <use x="63.623047" xlink:href="#DejaVuSans-46"/>
       <use x="95.410156" xlink:href="#DejaVuSans-55"/>
       <use x="159.033203" xlink:href="#DejaVuSans-53"/>
      </g>
     </g>
    </g>
    <g id="ytick_5">
     <g id="line2d_74">
      <g>
       <use style="fill-opacity:0;stroke:#000000;stroke-width:0.5;" x="64.171875" xlink:href="#m91bc3953c0" y="180"/>
      </g>
     </g>
     <g id="line2d_75">
      <g>
       <use style="fill-opacity:0;stroke:#000000;stroke-width:0.5;" x="510.571875" xlink:href="#md438be3eac" y="180"/>
      </g>
     </g>
     <g id="text_9">
      <!-- 0.80 -->
      <defs>
       <path d="M 31.78125 34.625 
Q 24.75 34.625 20.71875 30.859375 
Q 16.703125 27.09375 16.703125 20.515625 
Q 16.703125 13.921875 20.71875 10.15625 
Q 24.75 6.390625 31.78125 6.390625 
Q 38.8125 6.390625 42.859375 10.171875 
Q 46.921875 13.96875 46.921875 20.515625 
Q 46.921875 27.09375 42.890625 30.859375 
Q 38.875 34.625 31.78125 34.625 
z
M 21.921875 38.8125 
Q 15.578125 40.375 12.03125 44.71875 
Q 8.5 49.078125 8.5 55.328125 
Q 8.5 64.0625 14.71875 69.140625 
Q 20.953125 74.21875 31.78125 74.21875 
Q 42.671875 74.21875 48.875 69.140625 
Q 55.078125 64.0625 55.078125 55.328125 
Q 55.078125 49.078125 51.53125 44.71875 
Q 48 40.375 41.703125 38.8125 
Q 48.828125 37.15625 52.796875 32.3125 
Q 56.78125 27.484375 56.78125 20.515625 
Q 56.78125 9.90625 50.3125 4.234375 
Q 43.84375 -1.421875 31.78125 -1.421875 
Q 19.734375 -1.421875 13.25 4.234375 
Q 6.78125 9.90625 6.78125 20.515625 
Q 6.78125 27.484375 10.78125 32.3125 
Q 14.796875 37.15625 21.921875 38.8125 
z
M 18.3125 54.390625 
Q 18.3125 48.734375 21.84375 45.5625 
Q 25.390625 42.390625 31.78125 42.390625 
Q 38.140625 42.390625 41.71875 45.5625 
Q 45.3125 48.734375 45.3125 54.390625 
Q 45.3125 60.0625 41.71875 63.234375 
Q 38.140625 66.40625 31.78125 66.40625 
Q 25.390625 66.40625 21.84375 63.234375 
Q 18.3125 60.0625 18.3125 54.390625 
z
" id="DejaVuSans-56"/>
      </defs>
      <g transform="translate(29 183.863125)scale(0.14 -0.14)">
       <use xlink:href="#DejaVuSans-48"/>
       <use x="63.623047" xlink:href="#DejaVuSans-46"/>
       <use x="95.410156" xlink:href="#DejaVuSans-56"/>
       <use x="159.033203" xlink:href="#DejaVuSans-48"/>
      </g>
     </g>
    </g>
    <g id="ytick_6">
     <g id="line2d_76">
      <g>
       <use style="fill-opacity:0;stroke:#000000;stroke-width:0.5;" x="64.171875" xlink:href="#m91bc3953c0" y="140.727273"/>
      </g>
     </g>
     <g id="line2d_77">
      <g>
       <use style="fill-opacity:0;stroke:#000000;stroke-width:0.5;" x="510.571875" xlink:href="#md438be3eac" y="140.727273"/>
      </g>
     </g>
     <g id="text_10">
      <!-- 0.85 -->
      <g transform="translate(29 144.590398)scale(0.14 -0.14)">
       <use xlink:href="#DejaVuSans-48"/>
       <use x="63.623047" xlink:href="#DejaVuSans-46"/>
       <use x="95.410156" xlink:href="#DejaVuSans-56"/>
       <use x="159.033203" xlink:href="#DejaVuSans-53"/>
      </g>
     </g>
    </g>
    <g id="ytick_7">
     <g id="line2d_78">
      <g>
       <use style="fill-opacity:0;stroke:#000000;stroke-width:0.5;" x="64.171875" xlink:href="#m91bc3953c0" y="101.454545"/>
      </g>
     </g>
     <g id="line2d_79">
      <g>
       <use style="fill-opacity:0;stroke:#000000;stroke-width:0.5;" x="510.571875" xlink:href="#md438be3eac" y="101.454545"/>
      </g>
     </g>
     <g id="text_11">
      <!-- 0.90 -->
      <defs>
       <path d="M 10.984375 1.515625 
L 10.984375 10.5 
Q 14.703125 8.734375 18.5 7.8125 
Q 22.3125 6.890625 25.984375 6.890625 
Q 35.75 6.890625 40.890625 13.453125 
Q 46.046875 20.015625 46.78125 33.40625 
Q 43.953125 29.203125 39.59375 26.953125 
Q 35.25 24.703125 29.984375 24.703125 
Q 19.046875 24.703125 12.671875 31.3125 
Q 6.296875 37.9375 6.296875 49.421875 
Q 6.296875 60.640625 12.9375 67.421875 
Q 19.578125 74.21875 30.609375 74.21875 
Q 43.265625 74.21875 49.921875 64.515625 
Q 56.59375 54.828125 56.59375 36.375 
Q 56.59375 19.140625 48.40625 8.859375 
Q 40.234375 -1.421875 26.421875 -1.421875 
Q 22.703125 -1.421875 18.890625 -0.6875 
Q 15.09375 0.046875 10.984375 1.515625 
z
M 30.609375 32.421875 
Q 37.25 32.421875 41.125 36.953125 
Q 45.015625 41.5 45.015625 49.421875 
Q 45.015625 57.28125 41.125 61.84375 
Q 37.25 66.40625 30.609375 66.40625 
Q 23.96875 66.40625 20.09375 61.84375 
Q 16.21875 57.28125 16.21875 49.421875 
Q 16.21875 41.5 20.09375 36.953125 
Q 23.96875 32.421875 30.609375 32.421875 
z
" id="DejaVuSans-57"/>
      </defs>
      <g transform="translate(29 105.31767)scale(0.14 -0.14)">
       <use xlink:href="#DejaVuSans-48"/>
       <use x="63.623047" xlink:href="#DejaVuSans-46"/>
       <use x="95.410156" xlink:href="#DejaVuSans-57"/>
       <use x="159.033203" xlink:href="#DejaVuSans-48"/>
      </g>
     </g>
    </g>
    <g id="ytick_8">
     <g id="line2d_80">
      <g>
       <use style="fill-opacity:0;stroke:#000000;stroke-width:0.5;" x="64.171875" xlink:href="#m91bc3953c0" y="62.181818"/>
      </g>
     </g>
     <g id="line2d_81">
      <g>
       <use style="fill-opacity:0;stroke:#000000;stroke-width:0.5;" x="510.571875" xlink:href="#md438be3eac" y="62.181818"/>
      </g>
     </g>
     <g id="text_12">
      <!-- 0.95 -->
      <g transform="translate(29 66.044943)scale(0.14 -0.14)">
       <use xlink:href="#DejaVuSans-48"/>
       <use x="63.623047" xlink:href="#DejaVuSans-46"/>
       <use x="95.410156" xlink:href="#DejaVuSans-57"/>
       <use x="159.033203" xlink:href="#DejaVuSans-53"/>
      </g>
     </g>
    </g>
    <g id="ytick_9">
     <g id="line2d_82">
      <g>
       <use style="fill-opacity:0;stroke:#000000;stroke-width:0.5;" x="64.171875" xlink:href="#m91bc3953c0" y="22.909091"/>
      </g>
     </g>
     <g id="line2d_83">
      <g>
       <use style="fill-opacity:0;stroke:#000000;stroke-width:0.5;" x="510.571875" xlink:href="#md438be3eac" y="22.909091"/>
      </g>
     </g>
     <g id="text_13">
      <!-- 1.00 -->
      <g transform="translate(29 26.772216)scale(0.14 -0.14)">
       <use xlink:href="#DejaVuSans-49"/>
       <use x="63.623047" xlink:href="#DejaVuSans-46"/>
       <use x="95.410156" xlink:href="#DejaVuSans-48"/>
       <use x="159.033203" xlink:href="#DejaVuSans-48"/>
      </g>
     </g>
    </g>
    <g id="text_14">
     <!-- $T/T_c$ -->
     <defs>
      <path d="M 4.59375 1.3125 
Q 4.640625 1.5625 4.8125 2.1875 
Q 4.984375 2.828125 5.25 3.171875 
Q 5.515625 3.515625 6 3.515625 
Q 14.59375 3.515625 17.390625 4 
Q 20.0625 4.6875 20.609375 6.890625 
L 34.28125 61.8125 
Q 34.71875 63.03125 34.71875 64.015625 
Q 34.71875 64.796875 31.203125 64.796875 
L 25.390625 64.796875 
Q 18.703125 64.796875 15.0625 62.734375 
Q 11.421875 60.6875 9.71875 57.3125 
Q 8.015625 53.953125 5.328125 46.296875 
Q 4.984375 45.40625 4.296875 45.40625 
L 3.421875 45.40625 
Q 2.390625 45.40625 2.390625 46.6875 
L 9.515625 67.390625 
Q 9.71875 68.3125 10.5 68.3125 
L 69.578125 68.3125 
Q 70.609375 68.3125 70.609375 67 
L 67.28125 46.296875 
Q 67.28125 46 66.9375 45.703125 
Q 66.609375 45.40625 66.3125 45.40625 
L 65.375 45.40625 
Q 64.40625 45.40625 64.40625 46.6875 
Q 65.484375 53.765625 65.484375 56.6875 
Q 65.484375 60.203125 64.015625 62 
Q 62.546875 63.8125 60.203125 64.296875 
Q 57.859375 64.796875 54.109375 64.796875 
L 48.1875 64.796875 
Q 45.515625 64.796875 44.578125 64.296875 
Q 43.65625 63.8125 43.015625 61.375 
L 29.296875 6.5 
Q 29.25 6.296875 29.21875 6.09375 
Q 29.203125 5.90625 29.109375 5.609375 
Q 29.109375 4.34375 30.609375 4 
Q 33.203125 3.515625 41.703125 3.515625 
Q 42.671875 3.515625 42.671875 2.203125 
Q 42.328125 0.78125 42.125 0.390625 
Q 41.9375 0 41.015625 0 
L 5.609375 0 
Q 4.59375 0 4.59375 1.3125 
z
" id="Cmmi10-84"/>
     </defs>
     <g transform="translate(19.8 197.136)rotate(-90)scale(0.168 -0.168)">
      <use xlink:href="#Cmmi10-84"/>
      <use transform="translate(58.398438 0)" xlink:href="#Cmmi10-61"/>
      <use transform="translate(108.398438 0)" xlink:href="#Cmmi10-84"/>
      <use transform="translate(166.796875 -17.00625)scale(0.7)" xlink:href="#Cmmi10-99"/>
     </g>
    </g>
   </g>
   <g id="legend_1">
    <g id="line2d_84"/>
    <g id="line2d_85">
     <g>
      <use style="fill-opacity:0;stroke:#000000;stroke-width:1.5;" x="82.171875" xlink:href="#m25751290dd" y="18.118125"/>
     </g>
    </g>
    <g id="text_15">
     <!-- FC-72 -->
     <defs>
      <path d="M 9.8125 72.90625 
L 51.703125 72.90625 
L 51.703125 64.59375 
L 19.671875 64.59375 
L 19.671875 43.109375 
L 48.578125 43.109375 
L 48.578125 34.8125 
L 19.671875 34.8125 
L 19.671875 0 
L 9.8125 0 
z
" id="DejaVuSans-70"/>
      <path d="M 64.40625 67.28125 
L 64.40625 56.890625 
Q 59.421875 61.53125 53.78125 63.8125 
Q 48.140625 66.109375 41.796875 66.109375 
Q 29.296875 66.109375 22.65625 58.46875 
Q 16.015625 50.828125 16.015625 36.375 
Q 16.015625 21.96875 22.65625 14.328125 
Q 29.296875 6.6875 41.796875 6.6875 
Q 48.140625 6.6875 53.78125 8.984375 
Q 59.421875 11.28125 64.40625 15.921875 
L 64.40625 5.609375 
Q 59.234375 2.09375 53.4375 0.328125 
Q 47.65625 -1.421875 41.21875 -1.421875 
Q 24.65625 -1.421875 15.125 8.703125 
Q 5.609375 18.84375 5.609375 36.375 
Q 5.609375 53.953125 15.125 64.078125 
Q 24.65625 74.21875 41.21875 74.21875 
Q 47.75 74.21875 53.53125 72.484375 
Q 59.328125 70.75 64.40625 67.28125 
z
" id="DejaVuSans-67"/>
     </defs>
     <g transform="translate(103.771875 22.318125)scale(0.12 -0.12)">
      <use xlink:href="#DejaVuSans-70"/>
      <use x="57.519531" xlink:href="#DejaVuSans-67"/>
      <use x="127.34375" xlink:href="#DejaVuSans-45"/>
      <use x="163.427734" xlink:href="#DejaVuSans-55"/>
      <use x="227.050781" xlink:href="#DejaVuSans-50"/>
     </g>
    </g>
    <g id="line2d_86">
     <path d="M 70.171875 35.731875 
L 94.171875 35.731875 
" style="fill:none;stroke:#0000ff;stroke-linecap:square;stroke-width:2;"/>
    </g>
    <g id="line2d_87"/>
    <g id="text_16">
     <!-- van der Waals -->
     <defs>
      <path d="M 2.984375 54.6875 
L 12.5 54.6875 
L 29.59375 8.796875 
L 46.6875 54.6875 
L 56.203125 54.6875 
L 35.6875 0 
L 23.484375 0 
z
" id="DejaVuSans-118"/>
      <path d="M 34.28125 27.484375 
Q 23.390625 27.484375 19.1875 25 
Q 14.984375 22.515625 14.984375 16.5 
Q 14.984375 11.71875 18.140625 8.90625 
Q 21.296875 6.109375 26.703125 6.109375 
Q 34.1875 6.109375 38.703125 11.40625 
Q 43.21875 16.703125 43.21875 25.484375 
L 43.21875 27.484375 
z
M 52.203125 31.203125 
L 52.203125 0 
L 43.21875 0 
L 43.21875 8.296875 
Q 40.140625 3.328125 35.546875 0.953125 
Q 30.953125 -1.421875 24.3125 -1.421875 
Q 15.921875 -1.421875 10.953125 3.296875 
Q 6 8.015625 6 15.921875 
Q 6 25.140625 12.171875 29.828125 
Q 18.359375 34.515625 30.609375 34.515625 
L 43.21875 34.515625 
L 43.21875 35.40625 
Q 43.21875 41.609375 39.140625 45 
Q 35.0625 48.390625 27.6875 48.390625 
Q 23 48.390625 18.546875 47.265625 
Q 14.109375 46.140625 10.015625 43.890625 
L 10.015625 52.203125 
Q 14.9375 54.109375 19.578125 55.046875 
Q 24.21875 56 28.609375 56 
Q 40.484375 56 46.34375 49.84375 
Q 52.203125 43.703125 52.203125 31.203125 
z
" id="DejaVuSans-97"/>
      <path d="M 54.890625 33.015625 
L 54.890625 0 
L 45.90625 0 
L 45.90625 32.71875 
Q 45.90625 40.484375 42.875 44.328125 
Q 39.84375 48.1875 33.796875 48.1875 
Q 26.515625 48.1875 22.3125 43.546875 
Q 18.109375 38.921875 18.109375 30.90625 
L 18.109375 0 
L 9.078125 0 
L 9.078125 54.6875 
L 18.109375 54.6875 
L 18.109375 46.1875 
Q 21.34375 51.125 25.703125 53.5625 
Q 30.078125 56 35.796875 56 
Q 45.21875 56 50.046875 50.171875 
Q 54.890625 44.34375 54.890625 33.015625 
z
" id="DejaVuSans-110"/>
      <path id="DejaVuSans-32"/>
      <path d="M 45.40625 46.390625 
L 45.40625 75.984375 
L 54.390625 75.984375 
L 54.390625 0 
L 45.40625 0 
L 45.40625 8.203125 
Q 42.578125 3.328125 38.25 0.953125 
Q 33.9375 -1.421875 27.875 -1.421875 
Q 17.96875 -1.421875 11.734375 6.484375 
Q 5.515625 14.40625 5.515625 27.296875 
Q 5.515625 40.1875 11.734375 48.09375 
Q 17.96875 56 27.875 56 
Q 33.9375 56 38.25 53.625 
Q 42.578125 51.265625 45.40625 46.390625 
z
M 14.796875 27.296875 
Q 14.796875 17.390625 18.875 11.75 
Q 22.953125 6.109375 30.078125 6.109375 
Q 37.203125 6.109375 41.296875 11.75 
Q 45.40625 17.390625 45.40625 27.296875 
Q 45.40625 37.203125 41.296875 42.84375 
Q 37.203125 48.484375 30.078125 48.484375 
Q 22.953125 48.484375 18.875 42.84375 
Q 14.796875 37.203125 14.796875 27.296875 
z
" id="DejaVuSans-100"/>
      <path d="M 56.203125 29.59375 
L 56.203125 25.203125 
L 14.890625 25.203125 
Q 15.484375 15.921875 20.484375 11.0625 
Q 25.484375 6.203125 34.421875 6.203125 
Q 39.59375 6.203125 44.453125 7.46875 
Q 49.3125 8.734375 54.109375 11.28125 
L 54.109375 2.78125 
Q 49.265625 0.734375 44.1875 -0.34375 
Q 39.109375 -1.421875 33.890625 -1.421875 
Q 20.796875 -1.421875 13.15625 6.1875 
Q 5.515625 13.8125 5.515625 26.8125 
Q 5.515625 40.234375 12.765625 48.109375 
Q 20.015625 56 32.328125 56 
Q 43.359375 56 49.78125 48.890625 
Q 56.203125 41.796875 56.203125 29.59375 
z
M 47.21875 32.234375 
Q 47.125 39.59375 43.09375 43.984375 
Q 39.0625 48.390625 32.421875 48.390625 
Q 24.90625 48.390625 20.390625 44.140625 
Q 15.875 39.890625 15.1875 32.171875 
z
" id="DejaVuSans-101"/>
      <path d="M 41.109375 46.296875 
Q 39.59375 47.171875 37.8125 47.578125 
Q 36.03125 48 33.890625 48 
Q 26.265625 48 22.1875 43.046875 
Q 18.109375 38.09375 18.109375 28.8125 
L 18.109375 0 
L 9.078125 0 
L 9.078125 54.6875 
L 18.109375 54.6875 
L 18.109375 46.1875 
Q 20.953125 51.171875 25.484375 53.578125 
Q 30.03125 56 36.53125 56 
Q 37.453125 56 38.578125 55.875 
Q 39.703125 55.765625 41.0625 55.515625 
z
" id="DejaVuSans-114"/>
      <path d="M 3.328125 72.90625 
L 13.28125 72.90625 
L 28.609375 11.28125 
L 43.890625 72.90625 
L 54.984375 72.90625 
L 70.3125 11.28125 
L 85.59375 72.90625 
L 95.609375 72.90625 
L 77.296875 0 
L 64.890625 0 
L 49.515625 63.28125 
L 33.984375 0 
L 21.578125 0 
z
" id="DejaVuSans-87"/>
      <path d="M 9.421875 75.984375 
L 18.40625 75.984375 
L 18.40625 0 
L 9.421875 0 
z
" id="DejaVuSans-108"/>
      <path d="M 44.28125 53.078125 
L 44.28125 44.578125 
Q 40.484375 46.53125 36.375 47.5 
Q 32.28125 48.484375 27.875 48.484375 
Q 21.1875 48.484375 17.84375 46.4375 
Q 14.5 44.390625 14.5 40.28125 
Q 14.5 37.15625 16.890625 35.375 
Q 19.28125 33.59375 26.515625 31.984375 
L 29.59375 31.296875 
Q 39.15625 29.25 43.1875 25.515625 
Q 47.21875 21.78125 47.21875 15.09375 
Q 47.21875 7.46875 41.1875 3.015625 
Q 35.15625 -1.421875 24.609375 -1.421875 
Q 20.21875 -1.421875 15.453125 -0.5625 
Q 10.6875 0.296875 5.421875 2 
L 5.421875 11.28125 
Q 10.40625 8.6875 15.234375 7.390625 
Q 20.0625 6.109375 24.8125 6.109375 
Q 31.15625 6.109375 34.5625 8.28125 
Q 37.984375 10.453125 37.984375 14.40625 
Q 37.984375 18.0625 35.515625 20.015625 
Q 33.0625 21.96875 24.703125 23.78125 
L 21.578125 24.515625 
Q 13.234375 26.265625 9.515625 29.90625 
Q 5.8125 33.546875 5.8125 39.890625 
Q 5.8125 47.609375 11.28125 51.796875 
Q 16.75 56 26.8125 56 
Q 31.78125 56 36.171875 55.265625 
Q 40.578125 54.546875 44.28125 53.078125 
z
" id="DejaVuSans-115"/>
     </defs>
     <g transform="translate(103.771875 39.931875)scale(0.12 -0.12)">
      <use xlink:href="#DejaVuSans-118"/>
      <use x="59.179688" xlink:href="#DejaVuSans-97"/>
      <use x="120.458984" xlink:href="#DejaVuSans-110"/>
      <use x="183.837891" xlink:href="#DejaVuSans-32"/>
      <use x="215.625" xlink:href="#DejaVuSans-100"/>
      <use x="279.101562" xlink:href="#DejaVuSans-101"/>
      <use x="340.625" xlink:href="#DejaVuSans-114"/>
      <use x="381.738281" xlink:href="#DejaVuSans-32"/>
      <use x="413.525391" xlink:href="#DejaVuSans-87"/>
      <use x="512.308594" xlink:href="#DejaVuSans-97"/>
      <use x="573.587891" xlink:href="#DejaVuSans-97"/>
      <use x="634.867188" xlink:href="#DejaVuSans-108"/>
      <use x="662.650391" xlink:href="#DejaVuSans-115"/>
     </g>
    </g>
    <g id="line2d_88">
     <path d="M 70.171875 53.345625 
L 94.171875 53.345625 
" style="fill:none;stroke:#008000;stroke-linecap:square;stroke-width:2;"/>
    </g>
    <g id="line2d_89"/>
    <g id="text_17">
     <!-- Carnahan-Starling -->
     <defs>
      <path d="M 54.890625 33.015625 
L 54.890625 0 
L 45.90625 0 
L 45.90625 32.71875 
Q 45.90625 40.484375 42.875 44.328125 
Q 39.84375 48.1875 33.796875 48.1875 
Q 26.515625 48.1875 22.3125 43.546875 
Q 18.109375 38.921875 18.109375 30.90625 
L 18.109375 0 
L 9.078125 0 
L 9.078125 75.984375 
L 18.109375 75.984375 
L 18.109375 46.1875 
Q 21.34375 51.125 25.703125 53.5625 
Q 30.078125 56 35.796875 56 
Q 45.21875 56 50.046875 50.171875 
Q 54.890625 44.34375 54.890625 33.015625 
z
" id="DejaVuSans-104"/>
      <path d="M 53.515625 70.515625 
L 53.515625 60.890625 
Q 47.90625 63.578125 42.921875 64.890625 
Q 37.9375 66.21875 33.296875 66.21875 
Q 25.25 66.21875 20.875 63.09375 
Q 16.5 59.96875 16.5 54.203125 
Q 16.5 49.359375 19.40625 46.890625 
Q 22.3125 44.4375 30.421875 42.921875 
L 36.375 41.703125 
Q 47.40625 39.59375 52.65625 34.296875 
Q 57.90625 29 57.90625 20.125 
Q 57.90625 9.515625 50.796875 4.046875 
Q 43.703125 -1.421875 29.984375 -1.421875 
Q 24.8125 -1.421875 18.96875 -0.25 
Q 13.140625 0.921875 6.890625 3.21875 
L 6.890625 13.375 
Q 12.890625 10.015625 18.65625 8.296875 
Q 24.421875 6.59375 29.984375 6.59375 
Q 38.421875 6.59375 43.015625 9.90625 
Q 47.609375 13.234375 47.609375 19.390625 
Q 47.609375 24.75 44.3125 27.78125 
Q 41.015625 30.8125 33.5 32.328125 
L 27.484375 33.5 
Q 16.453125 35.6875 11.515625 40.375 
Q 6.59375 45.0625 6.59375 53.421875 
Q 6.59375 63.09375 13.40625 68.65625 
Q 20.21875 74.21875 32.171875 74.21875 
Q 37.3125 74.21875 42.625 73.28125 
Q 47.953125 72.359375 53.515625 70.515625 
z
" id="DejaVuSans-83"/>
      <path d="M 18.3125 70.21875 
L 18.3125 54.6875 
L 36.8125 54.6875 
L 36.8125 47.703125 
L 18.3125 47.703125 
L 18.3125 18.015625 
Q 18.3125 11.328125 20.140625 9.421875 
Q 21.96875 7.515625 27.59375 7.515625 
L 36.8125 7.515625 
L 36.8125 0 
L 27.59375 0 
Q 17.1875 0 13.234375 3.875 
Q 9.28125 7.765625 9.28125 18.015625 
L 9.28125 47.703125 
L 2.6875 47.703125 
L 2.6875 54.6875 
L 9.28125 54.6875 
L 9.28125 70.21875 
z
" id="DejaVuSans-116"/>
      <path d="M 9.421875 54.6875 
L 18.40625 54.6875 
L 18.40625 0 
L 9.421875 0 
z
M 9.421875 75.984375 
L 18.40625 75.984375 
L 18.40625 64.59375 
L 9.421875 64.59375 
z
" id="DejaVuSans-105"/>
      <path d="M 45.40625 27.984375 
Q 45.40625 37.75 41.375 43.109375 
Q 37.359375 48.484375 30.078125 48.484375 
Q 22.859375 48.484375 18.828125 43.109375 
Q 14.796875 37.75 14.796875 27.984375 
Q 14.796875 18.265625 18.828125 12.890625 
Q 22.859375 7.515625 30.078125 7.515625 
Q 37.359375 7.515625 41.375 12.890625 
Q 45.40625 18.265625 45.40625 27.984375 
z
M 54.390625 6.78125 
Q 54.390625 -7.171875 48.1875 -13.984375 
Q 42 -20.796875 29.203125 -20.796875 
Q 24.46875 -20.796875 20.265625 -20.09375 
Q 16.0625 -19.390625 12.109375 -17.921875 
L 12.109375 -9.1875 
Q 16.0625 -11.328125 19.921875 -12.34375 
Q 23.78125 -13.375 27.78125 -13.375 
Q 36.625 -13.375 41.015625 -8.765625 
Q 45.40625 -4.15625 45.40625 5.171875 
L 45.40625 9.625 
Q 42.625 4.78125 38.28125 2.390625 
Q 33.9375 0 27.875 0 
Q 17.828125 0 11.671875 7.65625 
Q 5.515625 15.328125 5.515625 27.984375 
Q 5.515625 40.671875 11.671875 48.328125 
Q 17.828125 56 27.875 56 
Q 33.9375 56 38.28125 53.609375 
Q 42.625 51.21875 45.40625 46.390625 
L 45.40625 54.6875 
L 54.390625 54.6875 
z
" id="DejaVuSans-103"/>
     </defs>
     <g transform="translate(103.771875 57.545625)scale(0.12 -0.12)">
      <use xlink:href="#DejaVuSans-67"/>
      <use x="69.824219" xlink:href="#DejaVuSans-97"/>
      <use x="131.103516" xlink:href="#DejaVuSans-114"/>
      <use x="172.201172" xlink:href="#DejaVuSans-110"/>
      <use x="235.580078" xlink:href="#DejaVuSans-97"/>
      <use x="296.859375" xlink:href="#DejaVuSans-104"/>
      <use x="360.238281" xlink:href="#DejaVuSans-97"/>
      <use x="421.517578" xlink:href="#DejaVuSans-110"/>
      <use x="484.896484" xlink:href="#DejaVuSans-45"/>
      <use x="520.980469" xlink:href="#DejaVuSans-83"/>
      <use x="584.457031" xlink:href="#DejaVuSans-116"/>
      <use x="623.666016" xlink:href="#DejaVuSans-97"/>
      <use x="684.945312" xlink:href="#DejaVuSans-114"/>
      <use x="726.058594" xlink:href="#DejaVuSans-108"/>
      <use x="753.841797" xlink:href="#DejaVuSans-105"/>
      <use x="781.625" xlink:href="#DejaVuSans-110"/>
      <use x="845.003906" xlink:href="#DejaVuSans-103"/>
     </g>
    </g>
    <g id="line2d_90">
     <path d="M 70.171875 70.96125 
L 94.171875 70.96125 
" style="fill:none;stroke:#ff0000;stroke-linecap:square;stroke-width:2;"/>
    </g>
    <g id="line2d_91"/>
    <g id="text_18">
     <!-- Peng-Robinson ($\omega$=0.5) -->
     <defs>
      <path d="M 19.671875 64.796875 
L 19.671875 37.40625 
L 32.078125 37.40625 
Q 38.96875 37.40625 42.71875 40.96875 
Q 46.484375 44.53125 46.484375 51.125 
Q 46.484375 57.671875 42.71875 61.234375 
Q 38.96875 64.796875 32.078125 64.796875 
z
M 9.8125 72.90625 
L 32.078125 72.90625 
Q 44.34375 72.90625 50.609375 67.359375 
Q 56.890625 61.8125 56.890625 51.125 
Q 56.890625 40.328125 50.609375 34.8125 
Q 44.34375 29.296875 32.078125 29.296875 
L 19.671875 29.296875 
L 19.671875 0 
L 9.8125 0 
z
" id="DejaVuSans-80"/>
      <path d="M 44.390625 34.1875 
Q 47.5625 33.109375 50.5625 29.59375 
Q 53.5625 26.078125 56.59375 19.921875 
L 66.609375 0 
L 56 0 
L 46.6875 18.703125 
Q 43.0625 26.03125 39.671875 28.421875 
Q 36.28125 30.8125 30.421875 30.8125 
L 19.671875 30.8125 
L 19.671875 0 
L 9.8125 0 
L 9.8125 72.90625 
L 32.078125 72.90625 
Q 44.578125 72.90625 50.734375 67.671875 
Q 56.890625 62.453125 56.890625 51.90625 
Q 56.890625 45.015625 53.6875 40.46875 
Q 50.484375 35.9375 44.390625 34.1875 
z
M 19.671875 64.796875 
L 19.671875 38.921875 
L 32.078125 38.921875 
Q 39.203125 38.921875 42.84375 42.21875 
Q 46.484375 45.515625 46.484375 51.90625 
Q 46.484375 58.296875 42.84375 61.546875 
Q 39.203125 64.796875 32.078125 64.796875 
z
" id="DejaVuSans-82"/>
      <path d="M 30.609375 48.390625 
Q 23.390625 48.390625 19.1875 42.75 
Q 14.984375 37.109375 14.984375 27.296875 
Q 14.984375 17.484375 19.15625 11.84375 
Q 23.34375 6.203125 30.609375 6.203125 
Q 37.796875 6.203125 41.984375 11.859375 
Q 46.1875 17.53125 46.1875 27.296875 
Q 46.1875 37.015625 41.984375 42.703125 
Q 37.796875 48.390625 30.609375 48.390625 
z
M 30.609375 56 
Q 42.328125 56 49.015625 48.375 
Q 55.71875 40.765625 55.71875 27.296875 
Q 55.71875 13.875 49.015625 6.21875 
Q 42.328125 -1.421875 30.609375 -1.421875 
Q 18.84375 -1.421875 12.171875 6.21875 
Q 5.515625 13.875 5.515625 27.296875 
Q 5.515625 40.765625 12.171875 48.375 
Q 18.84375 56 30.609375 56 
z
" id="DejaVuSans-111"/>
      <path d="M 48.6875 27.296875 
Q 48.6875 37.203125 44.609375 42.84375 
Q 40.53125 48.484375 33.40625 48.484375 
Q 26.265625 48.484375 22.1875 42.84375 
Q 18.109375 37.203125 18.109375 27.296875 
Q 18.109375 17.390625 22.1875 11.75 
Q 26.265625 6.109375 33.40625 6.109375 
Q 40.53125 6.109375 44.609375 11.75 
Q 48.6875 17.390625 48.6875 27.296875 
z
M 18.109375 46.390625 
Q 20.953125 51.265625 25.265625 53.625 
Q 29.59375 56 35.59375 56 
Q 45.5625 56 51.78125 48.09375 
Q 58.015625 40.1875 58.015625 27.296875 
Q 58.015625 14.40625 51.78125 6.484375 
Q 45.5625 -1.421875 35.59375 -1.421875 
Q 29.59375 -1.421875 25.265625 0.953125 
Q 20.953125 3.328125 18.109375 8.203125 
L 18.109375 0 
L 9.078125 0 
L 9.078125 75.984375 
L 18.109375 75.984375 
z
" id="DejaVuSans-98"/>
      <path d="M 31 75.875 
Q 24.46875 64.65625 21.28125 53.65625 
Q 18.109375 42.671875 18.109375 31.390625 
Q 18.109375 20.125 21.3125 9.0625 
Q 24.515625 -2 31 -13.1875 
L 23.1875 -13.1875 
Q 15.875 -1.703125 12.234375 9.375 
Q 8.59375 20.453125 8.59375 31.390625 
Q 8.59375 42.28125 12.203125 53.3125 
Q 15.828125 64.359375 23.1875 75.875 
z
" id="DejaVuSans-40"/>
      <path d="M 12.109375 -1.125 
Q 6.453125 -1.125 3.9375 3.015625 
Q 1.421875 7.171875 1.421875 13.1875 
Q 1.421875 17.140625 2.125 20.921875 
Q 2.828125 24.703125 4.265625 28.578125 
Q 5.71875 32.46875 7.5625 35.859375 
Q 9.421875 39.265625 11.71875 42.484375 
Q 12.15625 43.109375 12.890625 43.109375 
Q 13.53125 43.109375 13.921875 42.71875 
Q 14.3125 42.328125 14.3125 41.796875 
Q 14.3125 41.265625 14.015625 40.828125 
Q 4.890625 28.265625 4.890625 17.671875 
Q 4.890625 13.09375 7 9.796875 
Q 9.125 6.5 13.484375 6.5 
Q 17.234375 6.5 20.4375 8.6875 
Q 23.640625 10.890625 25.984375 14.3125 
Q 25.984375 16.0625 26.59375 19.765625 
Q 27.203125 23.484375 28.484375 26.390625 
Q 29.78125 29.296875 31.59375 29.296875 
Q 33.890625 29.296875 33.890625 26.609375 
Q 33.890625 25.046875 33.21875 22.671875 
Q 32.5625 20.3125 31.75 18.265625 
Q 30.953125 16.21875 29.78125 13.625 
Q 30.953125 6.5 36.921875 6.5 
Q 40.375 6.5 43.859375 8.5 
Q 47.359375 10.5 50.046875 13.75 
Q 52.734375 17 54.265625 20.75 
Q 55.8125 24.515625 55.8125 27.875 
Q 55.8125 30.90625 54.859375 32.59375 
Q 53.90625 34.28125 52.34375 36.125 
Q 50.78125 37.984375 50.78125 39.109375 
Q 50.78125 41.0625 52.4375 42.671875 
Q 54.109375 44.28125 56 44.28125 
Q 58.453125 44.28125 59.46875 42.0625 
Q 60.5 39.84375 60.5 37.015625 
Q 60.5 32.421875 58.671875 25.4375 
Q 56.84375 18.453125 54.5 13.8125 
Q 51.265625 7.515625 46.40625 3.1875 
Q 41.546875 -1.125 35.5 -1.125 
Q 31.640625 -1.125 29.265625 1.1875 
Q 26.90625 3.515625 26.21875 7.515625 
Q 23.4375 3.5625 19.875 1.21875 
Q 16.3125 -1.125 12.109375 -1.125 
z
" id="Cmmi10-33"/>
      <path d="M 10.59375 45.40625 
L 73.1875 45.40625 
L 73.1875 37.203125 
L 10.59375 37.203125 
z
M 10.59375 25.484375 
L 73.1875 25.484375 
L 73.1875 17.1875 
L 10.59375 17.1875 
z
" id="DejaVuSans-61"/>
      <path d="M 8.015625 75.875 
L 15.828125 75.875 
Q 23.140625 64.359375 26.78125 53.3125 
Q 30.421875 42.28125 30.421875 31.390625 
Q 30.421875 20.453125 26.78125 9.375 
Q 23.140625 -1.703125 15.828125 -13.1875 
L 8.015625 -13.1875 
Q 14.5 -2 17.703125 9.0625 
Q 20.90625 20.125 20.90625 31.390625 
Q 20.90625 42.671875 17.703125 53.65625 
Q 14.5 64.65625 8.015625 75.875 
z
" id="DejaVuSans-41"/>
     </defs>
     <g transform="translate(103.771875 75.16125)scale(0.12 -0.12)">
      <use transform="translate(0 0.015625)" xlink:href="#DejaVuSans-80"/>
      <use transform="translate(60.302734 0.015625)" xlink:href="#DejaVuSans-101"/>
      <use transform="translate(121.826172 0.015625)" xlink:href="#DejaVuSans-110"/>
      <use transform="translate(185.205078 0.015625)" xlink:href="#DejaVuSans-103"/>
      <use transform="translate(248.681641 0.015625)" xlink:href="#DejaVuSans-45"/>
      <use transform="translate(284.765625 0.015625)" xlink:href="#DejaVuSans-82"/>
      <use transform="translate(354.248047 0.015625)" xlink:href="#DejaVuSans-111"/>
      <use transform="translate(415.429688 0.015625)" xlink:href="#DejaVuSans-98"/>
      <use transform="translate(478.90625 0.015625)" xlink:href="#DejaVuSans-105"/>
      <use transform="translate(506.689453 0.015625)" xlink:href="#DejaVuSans-110"/>
      <use transform="translate(570.068359 0.015625)" xlink:href="#DejaVuSans-115"/>
      <use transform="translate(622.167969 0.015625)" xlink:href="#DejaVuSans-111"/>
      <use transform="translate(683.349609 0.015625)" xlink:href="#DejaVuSans-110"/>
      <use transform="translate(746.728516 0.015625)" xlink:href="#DejaVuSans-32"/>
      <use transform="translate(778.515625 0.015625)" xlink:href="#DejaVuSans-40"/>
      <use transform="translate(817.529297 0.015625)" xlink:href="#Cmmi10-33"/>
      <use transform="translate(879.736328 0.015625)" xlink:href="#DejaVuSans-61"/>
      <use transform="translate(963.525391 0.015625)" xlink:href="#DejaVuSans-48"/>
      <use transform="translate(1027.148438 0.015625)" xlink:href="#DejaVuSans-46"/>
      <use transform="translate(1058.935547 0.015625)" xlink:href="#DejaVuSans-53"/>
      <use transform="translate(1122.558594 0.015625)" xlink:href="#DejaVuSans-41"/>
     </g>
    </g>
   </g>
  </g>
 </g>
 <defs>
  <clipPath id="p977fd1748a">
   <rect height="345.6" width="446.4" x="64.171875" y="7.2"/>
  </clipPath>
 </defs>
</svg>
